<svg width="18" height="16" viewBox="0 0 18 16" fill="none" xmlns="http://www.w3.org/2000/svg">
<g id="vuesax/outline/clock">
<g id="clock">
<path id="Vector" d="M8.9609 15.1663C4.51988 15.1663 0.910156 11.953 0.910156 7.99967C0.910156 4.04634 4.51988 0.833008 8.9609 0.833008C13.4019 0.833008 17.0116 4.04634 17.0116 7.99967C17.0116 11.953 13.4019 15.1663 8.9609 15.1663ZM8.9609 1.83301C5.14148 1.83301 2.03352 4.59967 2.03352 7.99967C2.03352 11.3997 5.14148 14.1663 8.9609 14.1663C12.7803 14.1663 15.8883 11.3997 15.8883 7.99967C15.8883 4.59967 12.7803 1.83301 8.9609 1.83301Z" fill="#2B271E"/>
<path id="Vector_2" d="M11.7386 10.6202C11.6413 10.6202 11.5439 10.6002 11.454 10.5468L9.13244 9.3135C8.55578 9.00684 8.12891 8.3335 8.12891 7.74017V5.00684C8.12891 4.7335 8.38353 4.50684 8.69059 4.50684C8.99764 4.50684 9.25227 4.7335 9.25227 5.00684V7.74017C9.25227 7.98017 9.47694 8.3335 9.7091 8.4535L12.0307 9.68684C12.3003 9.82684 12.3827 10.1335 12.2254 10.3735C12.1131 10.5335 11.9259 10.6202 11.7386 10.6202Z" fill="#2B271E"/>
</g>
</g>
</svg>
