<svg width="255" height="59" viewBox="0 0 255 59" fill="none" xmlns="http://www.w3.org/2000/svg">
<rect width="255" height="59" fill="#6A704C"/>
<path d="M88.1259 37.4863V24.8863H96.0279V27.0823H90.3219V29.6383H94.8489V31.8343H90.3219V35.2903H96.0279V37.4863H88.1259ZM97.135 37.4863L100.429 32.9683L97.162 28.4773H99.871L101.779 31.0963L103.696 28.4773H106.405L103.138 32.9683L106.432 37.4863H103.723L101.779 34.8223L99.844 37.4863H97.135ZM110.027 41.9863H107.831V28.4863H110.027V29.6293C110.321 29.2213 110.681 28.8913 111.107 28.6393C111.539 28.3813 112.043 28.2523 112.619 28.2523C113.279 28.2523 113.894 28.3753 114.464 28.6213C115.034 28.8673 115.535 29.2093 115.967 29.6473C116.405 30.0793 116.744 30.5803 116.984 31.1503C117.23 31.7203 117.353 32.3323 117.353 32.9863C117.353 33.6403 117.23 34.2553 116.984 34.8313C116.744 35.4073 116.405 35.9143 115.967 36.3523C115.535 36.7843 115.034 37.1233 114.464 37.3693C113.894 37.6153 113.279 37.7383 112.619 37.7383C112.043 37.7383 111.539 37.6123 111.107 37.3603C110.681 37.1023 110.321 36.7693 110.027 36.3613V41.9863ZM112.592 30.3673C112.136 30.3673 111.728 30.4873 111.368 30.7273C111.008 30.9613 110.726 31.2763 110.522 31.6723C110.318 32.0683 110.216 32.5063 110.216 32.9863C110.216 33.4663 110.318 33.9073 110.522 34.3093C110.726 34.7053 111.008 35.0233 111.368 35.2633C111.728 35.4973 112.136 35.6143 112.592 35.6143C113.054 35.6143 113.477 35.4973 113.861 35.2633C114.245 35.0293 114.551 34.7143 114.779 34.3183C115.007 33.9163 115.121 33.4723 115.121 32.9863C115.121 32.5063 115.007 32.0683 114.779 31.6723C114.551 31.2763 114.245 30.9613 113.861 30.7273C113.483 30.4873 113.06 30.3673 112.592 30.3673ZM118.624 37.4863V23.9863H120.82V37.4863H118.624ZM126.803 37.7203C125.975 37.7203 125.219 37.5073 124.535 37.0813C123.857 36.6553 123.314 36.0853 122.906 35.3713C122.504 34.6513 122.303 33.8563 122.303 32.9863C122.303 32.3263 122.42 31.7113 122.654 31.1413C122.888 30.5653 123.209 30.0613 123.617 29.6293C124.031 29.1913 124.511 28.8493 125.057 28.6033C125.603 28.3573 126.185 28.2343 126.803 28.2343C127.631 28.2343 128.384 28.4473 129.062 28.8733C129.746 29.2993 130.289 29.8723 130.691 30.5923C131.099 31.3123 131.303 32.1103 131.303 32.9863C131.303 33.6403 131.186 34.2523 130.952 34.8223C130.718 35.3923 130.394 35.8963 129.98 36.3343C129.572 36.7663 129.095 37.1053 128.549 37.3513C128.009 37.5973 127.427 37.7203 126.803 37.7203ZM126.803 35.5243C127.241 35.5243 127.634 35.4073 127.982 35.1733C128.33 34.9393 128.603 34.6303 128.801 34.2463C129.005 33.8623 129.107 33.4423 129.107 32.9863C129.107 32.5183 129.002 32.0923 128.792 31.7083C128.588 31.3183 128.309 31.0093 127.955 30.7813C127.607 30.5473 127.223 30.4303 126.803 30.4303C126.371 30.4303 125.981 30.5473 125.633 30.7813C125.285 31.0153 125.009 31.3273 124.805 31.7173C124.601 32.1073 124.499 32.5303 124.499 32.9863C124.499 33.4603 124.604 33.8893 124.814 34.2733C125.024 34.6573 125.303 34.9633 125.651 35.1913C126.005 35.4133 126.389 35.5243 126.803 35.5243ZM132.713 37.4863L132.704 28.4863H134.9L134.909 29.2873C135.215 28.9633 135.581 28.7083 136.007 28.5223C136.433 28.3303 136.892 28.2343 137.384 28.2343C137.714 28.2343 138.044 28.2823 138.374 28.3783L137.51 30.5923C137.282 30.5023 137.054 30.4573 136.826 30.4573C136.472 30.4573 136.148 30.5443 135.854 30.7183C135.566 30.8863 135.335 31.1173 135.161 31.4113C134.993 31.6993 134.909 32.0203 134.909 32.3743V37.4863H132.713ZM142.922 37.7203C142.094 37.7203 141.338 37.5073 140.654 37.0813C139.976 36.6553 139.433 36.0823 139.025 35.3623C138.623 34.6423 138.422 33.8473 138.422 32.9773C138.422 32.3233 138.539 31.7113 138.773 31.1413C139.007 30.5653 139.328 30.0613 139.736 29.6293C140.15 29.1913 140.63 28.8493 141.176 28.6033C141.722 28.3573 142.304 28.2343 142.922 28.2343C143.624 28.2343 144.266 28.3843 144.848 28.6843C145.436 28.9783 145.934 29.3833 146.342 29.8993C146.75 30.4153 147.047 31.0033 147.233 31.6633C147.419 32.3233 147.461 33.0133 147.359 33.7333H140.78C140.864 34.0693 141.002 34.3723 141.194 34.6423C141.386 34.9063 141.629 35.1193 141.923 35.2813C142.217 35.4373 142.55 35.5183 142.922 35.5243C143.306 35.5303 143.654 35.4403 143.966 35.2543C144.284 35.0623 144.548 34.8043 144.758 34.4803L146.999 35.0023C146.633 35.8003 146.087 36.4543 145.361 36.9643C144.635 37.4683 143.822 37.7203 142.922 37.7203ZM140.708 32.0863H145.136C145.07 31.7263 144.929 31.4023 144.713 31.1143C144.503 30.8203 144.242 30.5863 143.93 30.4123C143.618 30.2383 143.282 30.1513 142.922 30.1513C142.562 30.1513 142.229 30.2383 141.923 30.4123C141.617 30.5803 141.356 30.8113 141.14 31.1053C140.93 31.3933 140.786 31.7203 140.708 32.0863Z" fill="white"/>
<path d="M223.533 29.4942C223.533 29.7345 223.427 29.953 223.213 30.1279L216.28 35.5908C215.853 35.9186 215.187 35.9186 214.76 35.569C214.36 35.2193 214.36 34.673 214.787 34.3234L220.92 29.4942L214.787 24.6649C214.36 24.3371 214.36 23.769 214.76 23.4193C215.16 23.0697 215.853 23.0697 216.28 23.3975L223.213 28.8604C223.427 29.0353 223.533 29.2538 223.533 29.4942Z" fill="white"/>
</svg>
