<svg xmlns="http://www.w3.org/2000/svg" width="37" height="38" viewBox="0 0 37 38" fill="none">
  <path d="M18.4987 34.4163C27.0131 34.4163 33.9154 27.5141 33.9154 18.9997C33.9154 10.4853 27.0131 3.58301 18.4987 3.58301C9.98431 3.58301 3.08203 10.4853 3.08203 18.9997C3.08203 27.5141 9.98431 34.4163 18.4987 34.4163Z" stroke="#6A704C" stroke-width="1.5" stroke-linecap="round" stroke-linejoin="round"/>
  <path d="M19.0134 27.4024C18.7359 27.4949 18.258 27.4949 17.9805 27.4024C15.5755 26.5853 10.1797 23.1474 10.1797 17.3199C10.1797 14.7453 12.2455 12.6641 14.8047 12.6641C16.3155 12.6641 17.6568 13.3886 18.5047 14.5295C19.3372 13.404 20.6938 12.6641 22.2047 12.6641C24.7638 12.6641 26.8297 14.7453 26.8297 17.3199C26.8297 23.1474 21.4338 26.5853 19.0134 27.4024Z" stroke="#6A704C" stroke-width="1.5" stroke-linecap="round" stroke-linejoin="round"/>
</svg>